<svg xmlns="http://www.w3.org/2000/svg" width="495" height="199" viewBox="0 0 495 199" role="img" aria-label="GitHub activity">
<style>.t{font:600 18px "Segoe UI",Ubuntu,sans-serif;fill:#fe428e}.s{font:400 12px "Segoe UI",Ubuntu,sans-serif;fill:#a9fef7;opacity:.75}.n{font:700 22px "Segoe UI",Ubuntu,sans-serif;fill:#f8d847}.k{font:400 12px "Segoe UI",Ubuntu,sans-serif;fill:#a9fef7}</style>
<rect width="495" height="199" rx="6" fill="#141321"/>
<text x="25" y="35" class="t">GitHub activity</text>
<text x="25" y="55" class="s">Last 12 months, public &amp; private · updated 29 Sep 2026</text>
<text x="25" y="87" class="n">1,422</text><text x="25" y="104" class="k">contributions</text>
<text x="173" y="87" class="n">1</text><text x="173" y="104" class="k">day current streak</text>
<text x="322" y="87" class="n">12</text><text x="322" y="104" class="k">day longest streak</text>
<rect x="25.0" y="118.0" width="6.6" height="6.6" rx="1.5" fill="#1e1c2e"><title>2025-09-28: 0</title></rect>
<rect x="25.0" y="126.4" width="6.6" height="6.6" rx="1.5" fill="#1e1c2e"><title>2025-09-29: 0</title></rect>
<rect x="25.0" y="134.8" width="6.6" height="6.6" rx="1.5" fill="#1e1c2e"><title>2025-09-30: 0</title></rect>
<rect x="25.0" y="143.2" width="6.6" height="6.6" rx="1.5" fill="#1e1c2e"><title>2025-10-01: 0</title></rect>
<rect x="25.0" y="151.6" width="6.6" height="6.6" rx="1.5" fill="#1e1c2e"><title>2025-10-02: 0</title></rect>
<rect x="25.0" y="160.0" width="6.6" height="6.6" rx="1.5" fill="#1e1c2e"><title>2025-10-03: 0</title></rect>
<rect x="25.0" y="168.4" width="6.6" height="6.6" rx="1.5" fill="#1e1c2e"><title>2025-10-04: 0</title></rect>
<rect x="33.4" y="118.0" width="6.6" height="6.6" rx="1.5" fill="#1e1c2e"><title>2025-10-05: 0</title></rect>
<rect x="33.4" y="126.4" width="6.6" height="6.6" rx="1.5" fill="#1e1c2e"><title>2025-10-06: 0</title></rect>
<rect x="33.4" y="134.8" width="6.6" height="6.6" rx="1.5" fill="#1e1c2e"><title>2025-10-07: 0</title></rect>
<rect x="33.4" y="143.2" width="6.6" height="6.6" rx="1.5" fill="#1e1c2e"><title>2025-10-08: 0</title></rect>
<rect x="33.4" y="151.6" width="6.6" height="6.6" rx="1.5" fill="#1e1c2e"><title>2025-10-09: 0</title></rect>
<rect x="33.4" y="160.0" width="6.6" height="6.6" rx="1.5" fill="#1e1c2e"><title>2025-10-10: 0</title></rect>
<rect x="33.4" y="168.4" width="6.6" height="6.6" rx="1.5" fill="#1e1c2e"><title>2025-10-11: 0</title></rect>
<rect x="41.8" y="118.0" width="6.6" height="6.6" rx="1.5" fill="#1e1c2e"><title>2025-10-12: 0</title></rect>
<rect x="41.8" y="126.4" width="6.6" height="6.6" rx="1.5" fill="#1e1c2e"><title>2025-10-13: 0</title></rect>
<rect x="41.8" y="134.8" width="6.6" height="6.6" rx="1.5" fill="#1e1c2e"><title>2025-10-14: 0</title></rect>
<rect x="41.8" y="143.2" width="6.6" height="6.6" rx="1.5" fill="#1e1c2e"><title>2025-10-15: 0</title></rect>
<rect x="41.8" y="151.6" width="6.6" height="6.6" rx="1.5" fill="#1e1c2e"><title>2025-10-16: 0</title></rect>
<rect x="41.8" y="160.0" width="6.6" height="6.6" rx="1.5" fill="#1e1c2e"><title>2025-10-17: 0</title></rect>
<rect x="41.8" y="168.4" width="6.6" height="6.6" rx="1.5" fill="#1e1c2e"><title>2025-10-18: 0</title></rect>
<rect x="50.2" y="118.0" width="6.6" height="6.6" rx="1.5" fill="#1e1c2e"><title>2025-10-19: 0</title></rect>
<rect x="50.2" y="126.4" width="6.6" height="6.6" rx="1.5" fill="#1e1c2e"><title>2025-10-20: 0</title></rect>
<rect x="50.2" y="134.8" width="6.6" height="6.6" rx="1.5" fill="#1e1c2e"><title>2025-10-21: 0</title></rect>
<rect x="50.2" y="143.2" width="6.6" height="6.6" rx="1.5" fill="#1e1c2e"><title>2025-10-22: 0</title></rect>
<rect x="50.2" y="151.6" width="6.6" height="6.6" rx="1.5" fill="#1e1c2e"><title>2025-10-23: 0</title></rect>
<rect x="50.2" y="160.0" width="6.6" height="6.6" rx="1.5" fill="#1e1c2e"><title>2025-10-24: 0</title></rect>
<rect x="50.2" y="168.4" width="6.6" height="6.6" rx="1.5" fill="#1e1c2e"><title>2025-10-25: 0</title></rect>
<rect x="58.6" y="118.0" width="6.6" height="6.6" rx="1.5" fill="#1e1c2e"><title>2025-10-26: 0</title></rect>
<rect x="58.6" y="126.4" width="6.6" height="6.6" rx="1.5" fill="#1e1c2e"><title>2025-10-27: 0</title></rect>
<rect x="58.6" y="134.8" width="6.6" height="6.6" rx="1.5" fill="#1e1c2e"><title>2025-10-28: 0</title></rect>
<rect x="58.6" y="143.2" width="6.6" height="6.6" rx="1.5" fill="#1e1c2e"><title>2025-10-29: 0</title></rect>
<rect x="58.6" y="151.6" width="6.6" height="6.6" rx="1.5" fill="#1e1c2e"><title>2025-10-30: 0</title></rect>
<rect x="58.6" y="160.0" width="6.6" height="6.6" rx="1.5" fill="#1e1c2e"><title>2025-10-31: 0</title></rect>
<rect x="58.6" y="168.4" width="6.6" height="6.6" rx="1.5" fill="#1e1c2e"><title>2025-11-01: 0</title></rect>
<rect x="67.0" y="118.0" width="6.6" height="6.6" rx="1.5" fill="#1e1c2e"><title>2025-11-02: 0</title></rect>
<rect x="67.0" y="126.4" width="6.6" height="6.6" rx="1.5" fill="#1e1c2e"><title>2025-11-03: 0</title></rect>
<rect x="67.0" y="134.8" width="6.6" height="6.6" rx="1.5" fill="#1e1c2e"><title>2025-11-04: 0</title></rect>
<rect x="67.0" y="143.2" width="6.6" height="6.6" rx="1.5" fill="#1e1c2e"><title>2025-11-05: 0</title></rect>
<rect x="67.0" y="151.6" width="6.6" height="6.6" rx="1.5" fill="#1e1c2e"><title>2025-11-06: 0</title></rect>
<rect x="67.0" y="160.0" width="6.6" height="6.6" rx="1.5" fill="#1e1c2e"><title>2025-11-07: 0</title></rect>
<rect x="67.0" y="168.4" width="6.6" height="6.6" rx="1.5" fill="#1e1c2e"><title>2025-11-08: 0</title></rect>
<rect x="75.4" y="118.0" width="6.6" height="6.6" rx="1.5" fill="#1e1c2e"><title>2025-11-09: 0</title></rect>
<rect x="75.4" y="126.4" width="6.6" height="6.6" rx="1.5" fill="#1e1c2e"><title>2025-11-10: 0</title></rect>
<rect x="75.4" y="134.8" width="6.6" height="6.6" rx="1.5" fill="#1e1c2e"><title>2025-11-11: 0</title></rect>
<rect x="75.4" y="143.2" width="6.6" height="6.6" rx="1.5" fill="#1e1c2e"><title>2025-11-12: 0</title></rect>
<rect x="75.4" y="151.6" width="6.6" height="6.6" rx="1.5" fill="#1e1c2e"><title>2025-11-13: 0</title></rect>
<rect x="75.4" y="160.0" width="6.6" height="6.6" rx="1.5" fill="#1e1c2e"><title>2025-11-14: 0</title></rect>
<rect x="75.4" y="168.4" width="6.6" height="6.6" rx="1.5" fill="#1e1c2e"><title>2025-11-15: 0</title></rect>
<rect x="83.8" y="118.0" width="6.6" height="6.6" rx="1.5" fill="#1e1c2e"><title>2025-11-16: 0</title></rect>
<rect x="83.8" y="126.4" width="6.6" height="6.6" rx="1.5" fill="#1e1c2e"><title>2025-11-17: 0</title></rect>
<rect x="83.8" y="134.8" width="6.6" height="6.6" rx="1.5" fill="#1e1c2e"><title>2025-11-18: 0</title></rect>
<rect x="83.8" y="143.2" width="6.6" height="6.6" rx="1.5" fill="#1e1c2e"><title>2025-11-19: 0</title></rect>
<rect x="83.8" y="151.6" width="6.6" height="6.6" rx="1.5" fill="#1e1c2e"><title>2025-11-20: 0</title></rect>
<rect x="83.8" y="160.0" width="6.6" height="6.6" rx="1.5" fill="#1e1c2e"><title>2025-11-21: 0</title></rect>
<rect x="83.8" y="168.4" width="6.6" height="6.6" rx="1.5" fill="#1e1c2e"><title>2025-11-22: 0</title></rect>
<rect x="92.2" y="118.0" width="6.6" height="6.6" rx="1.5" fill="#1e1c2e"><title>2025-11-23: 0</title></rect>
<rect x="92.2" y="126.4" width="6.6" height="6.6" rx="1.5" fill="#5a1f47"><title>2025-11-24: 1</title></rect>
<rect x="92.2" y="134.8" width="6.6" height="6.6" rx="1.5" fill="#1e1c2e"><title>2025-11-25: 0</title></rect>
<rect x="92.2" y="143.2" width="6.6" height="6.6" rx="1.5" fill="#1e1c2e"><title>2025-11-26: 0</title></rect>
<rect x="92.2" y="151.6" width="6.6" height="6.6" rx="1.5" fill="#1e1c2e"><title>2025-11-27: 0</title></rect>
<rect x="92.2" y="160.0" width="6.6" height="6.6" rx="1.5" fill="#1e1c2e"><title>2025-11-28: 0</title></rect>
<rect x="92.2" y="168.4" width="6.6" height="6.6" rx="1.5" fill="#1e1c2e"><title>2025-11-29: 0</title></rect>
<rect x="100.6" y="118.0" width="6.6" height="6.6" rx="1.5" fill="#1e1c2e"><title>2025-11-30: 0</title></rect>
<rect x="100.6" y="126.4" width="6.6" height="6.6" rx="1.5" fill="#1e1c2e"><title>2025-12-01: 0</title></rect>
<rect x="100.6" y="134.8" width="6.6" height="6.6" rx="1.5" fill="#1e1c2e"><title>2025-12-02: 0</title></rect>
<rect x="100.6" y="143.2" width="6.6" height="6.6" rx="1.5" fill="#1e1c2e"><title>2025-12-03: 0</title></rect>
<rect x="100.6" y="151.6" width="6.6" height="6.6" rx="1.5" fill="#1e1c2e"><title>2025-12-04: 0</title></rect>
<rect x="100.6" y="160.0" width="6.6" height="6.6" rx="1.5" fill="#1e1c2e"><title>2025-12-05: 0</title></rect>
<rect x="100.6" y="168.4" width="6.6" height="6.6" rx="1.5" fill="#1e1c2e"><title>2025-12-06: 0</title></rect>
<rect x="109.0" y="118.0" width="6.6" height="6.6" rx="1.5" fill="#1e1c2e"><title>2025-12-07: 0</title></rect>
<rect x="109.0" y="126.4" width="6.6" height="6.6" rx="1.5" fill="#1e1c2e"><title>2025-12-08: 0</title></rect>
<rect x="109.0" y="134.8" width="6.6" height="6.6" rx="1.5" fill="#1e1c2e"><title>2025-12-09: 0</title></rect>
<rect x="109.0" y="143.2" width="6.6" height="6.6" rx="1.5" fill="#1e1c2e"><title>2025-12-10: 0</title></rect>
<rect x="109.0" y="151.6" width="6.6" height="6.6" rx="1.5" fill="#1e1c2e"><title>2025-12-11: 0</title></rect>
<rect x="109.0" y="160.0" width="6.6" height="6.6" rx="1.5" fill="#1e1c2e"><title>2025-12-12: 0</title></rect>
<rect x="109.0" y="168.4" width="6.6" height="6.6" rx="1.5" fill="#1e1c2e"><title>2025-12-13: 0</title></rect>
<rect x="117.4" y="118.0" width="6.6" height="6.6" rx="1.5" fill="#1e1c2e"><title>2025-12-14: 0</title></rect>
<rect x="117.4" y="126.4" width="6.6" height="6.6" rx="1.5" fill="#1e1c2e"><title>2025-12-15: 0</title></rect>
<rect x="117.4" y="134.8" width="6.6" height="6.6" rx="1.5" fill="#1e1c2e"><title>2025-12-16: 0</title></rect>
<rect x="117.4" y="143.2" width="6.6" height="6.6" rx="1.5" fill="#1e1c2e"><title>2025-12-17: 0</title></rect>
<rect x="117.4" y="151.6" width="6.6" height="6.6" rx="1.5" fill="#1e1c2e"><title>2025-12-18: 0</title></rect>
<rect x="117.4" y="160.0" width="6.6" height="6.6" rx="1.5" fill="#1e1c2e"><title>2025-12-19: 0</title></rect>
<rect x="117.4" y="168.4" width="6.6" height="6.6" rx="1.5" fill="#1e1c2e"><title>2025-12-20: 0</title></rect>
<rect x="125.8" y="118.0" width="6.6" height="6.6" rx="1.5" fill="#1e1c2e"><title>2025-12-21: 0</title></rect>
<rect x="125.8" y="126.4" width="6.6" height="6.6" rx="1.5" fill="#1e1c2e"><title>2025-12-22: 0</title></rect>
<rect x="125.8" y="134.8" width="6.6" height="6.6" rx="1.5" fill="#1e1c2e"><title>2025-12-23: 0</title></rect>
<rect x="125.8" y="143.2" width="6.6" height="6.6" rx="1.5" fill="#1e1c2e"><title>2025-12-24: 0</title></rect>
<rect x="125.8" y="151.6" width="6.6" height="6.6" rx="1.5" fill="#1e1c2e"><title>2025-12-25: 0</title></rect>
<rect x="125.8" y="160.0" width="6.6" height="6.6" rx="1.5" fill="#1e1c2e"><title>2025-12-26: 0</title></rect>
<rect x="125.8" y="168.4" width="6.6" height="6.6" rx="1.5" fill="#1e1c2e"><title>2025-12-27: 0</title></rect>
<rect x="134.2" y="118.0" width="6.6" height="6.6" rx="1.5" fill="#1e1c2e"><title>2025-12-28: 0</title></rect>
<rect x="134.2" y="126.4" width="6.6" height="6.6" rx="1.5" fill="#1e1c2e"><title>2025-12-29: 0</title></rect>
<rect x="134.2" y="134.8" width="6.6" height="6.6" rx="1.5" fill="#1e1c2e"><title>2025-12-30: 0</title></rect>
<rect x="134.2" y="143.2" width="6.6" height="6.6" rx="1.5" fill="#1e1c2e"><title>2025-12-31: 0</title></rect>
<rect x="134.2" y="151.6" width="6.6" height="6.6" rx="1.5" fill="#1e1c2e"><title>2026-01-01: 0</title></rect>
<rect x="134.2" y="160.0" width="6.6" height="6.6" rx="1.5" fill="#1e1c2e"><title>2026-01-02: 0</title></rect>
<rect x="134.2" y="168.4" width="6.6" height="6.6" rx="1.5" fill="#1e1c2e"><title>2026-01-03: 0</title></rect>
<rect x="142.6" y="118.0" width="6.6" height="6.6" rx="1.5" fill="#1e1c2e"><title>2026-01-04: 0</title></rect>
<rect x="142.6" y="126.4" width="6.6" height="6.6" rx="1.5" fill="#1e1c2e"><title>2026-01-05: 0</title></rect>
<rect x="142.6" y="134.8" width="6.6" height="6.6" rx="1.5" fill="#1e1c2e"><title>2026-01-06: 0</title></rect>
<rect x="142.6" y="143.2" width="6.6" height="6.6" rx="1.5" fill="#1e1c2e"><title>2026-01-07: 0</title></rect>
<rect x="142.6" y="151.6" width="6.6" height="6.6" rx="1.5" fill="#1e1c2e"><title>2026-01-08: 0</title></rect>
<rect x="142.6" y="160.0" width="6.6" height="6.6" rx="1.5" fill="#1e1c2e"><title>2026-01-09: 0</title></rect>
<rect x="142.6" y="168.4" width="6.6" height="6.6" rx="1.5" fill="#1e1c2e"><title>2026-01-10: 0</title></rect>
<rect x="151.0" y="118.0" width="6.6" height="6.6" rx="1.5" fill="#1e1c2e"><title>2026-01-11: 0</title></rect>
<rect x="151.0" y="126.4" width="6.6" height="6.6" rx="1.5" fill="#1e1c2e"><title>2026-01-12: 0</title></rect>
<rect x="151.0" y="134.8" width="6.6" height="6.6" rx="1.5" fill="#1e1c2e"><title>2026-01-13: 0</title></rect>
<rect x="151.0" y="143.2" width="6.6" height="6.6" rx="1.5" fill="#1e1c2e"><title>2026-01-14: 0</title></rect>
<rect x="151.0" y="151.6" width="6.6" height="6.6" rx="1.5" fill="#1e1c2e"><title>2026-01-15: 0</title></rect>
<rect x="151.0" y="160.0" width="6.6" height="6.6" rx="1.5" fill="#1e1c2e"><title>2026-01-16: 0</title></rect>
<rect x="151.0" y="168.4" width="6.6" height="6.6" rx="1.5" fill="#1e1c2e"><title>2026-01-17: 0</title></rect>
<rect x="159.4" y="118.0" width="6.6" height="6.6" rx="1.5" fill="#1e1c2e"><title>2026-01-18: 0</title></rect>
<rect x="159.4" y="126.4" width="6.6" height="6.6" rx="1.5" fill="#1e1c2e"><title>2026-01-19: 0</title></rect>
<rect x="159.4" y="134.8" width="6.6" height="6.6" rx="1.5" fill="#1e1c2e"><title>2026-01-20: 0</title></rect>
<rect x="159.4" y="143.2" width="6.6" height="6.6" rx="1.5" fill="#1e1c2e"><title>2026-01-21: 0</title></rect>
<rect x="159.4" y="151.6" width="6.6" height="6.6" rx="1.5" fill="#1e1c2e"><title>2026-01-22: 0</title></rect>
<rect x="159.4" y="160.0" width="6.6" height="6.6" rx="1.5" fill="#1e1c2e"><title>2026-01-23: 0</title></rect>
<rect x="159.4" y="168.4" width="6.6" height="6.6" rx="1.5" fill="#1e1c2e"><title>2026-01-24: 0</title></rect>
<rect x="167.8" y="118.0" width="6.6" height="6.6" rx="1.5" fill="#1e1c2e"><title>2026-01-25: 0</title></rect>
<rect x="167.8" y="126.4" width="6.6" height="6.6" rx="1.5" fill="#1e1c2e"><title>2026-01-26: 0</title></rect>
<rect x="167.8" y="134.8" width="6.6" height="6.6" rx="1.5" fill="#1e1c2e"><title>2026-01-27: 0</title></rect>
<rect x="167.8" y="143.2" width="6.6" height="6.6" rx="1.5" fill="#1e1c2e"><title>2026-01-28: 0</title></rect>
<rect x="167.8" y="151.6" width="6.6" height="6.6" rx="1.5" fill="#1e1c2e"><title>2026-01-29: 0</title></rect>
<rect x="167.8" y="160.0" width="6.6" height="6.6" rx="1.5" fill="#1e1c2e"><title>2026-01-30: 0</title></rect>
<rect x="167.8" y="168.4" width="6.6" height="6.6" rx="1.5" fill="#1e1c2e"><title>2026-01-31: 0</title></rect>
<rect x="176.2" y="118.0" width="6.6" height="6.6" rx="1.5" fill="#1e1c2e"><title>2026-02-01: 0</title></rect>
<rect x="176.2" y="126.4" width="6.6" height="6.6" rx="1.5" fill="#1e1c2e"><title>2026-02-02: 0</title></rect>
<rect x="176.2" y="134.8" width="6.6" height="6.6" rx="1.5" fill="#1e1c2e"><title>2026-02-03: 0</title></rect>
<rect x="176.2" y="143.2" width="6.6" height="6.6" rx="1.5" fill="#1e1c2e"><title>2026-02-04: 0</title></rect>
<rect x="176.2" y="151.6" width="6.6" height="6.6" rx="1.5" fill="#5a1f47"><title>2026-02-05: 1</title></rect>
<rect x="176.2" y="160.0" width="6.6" height="6.6" rx="1.5" fill="#1e1c2e"><title>2026-02-06: 0</title></rect>
<rect x="176.2" y="168.4" width="6.6" height="6.6" rx="1.5" fill="#1e1c2e"><title>2026-02-07: 0</title></rect>
<rect x="184.6" y="118.0" width="6.6" height="6.6" rx="1.5" fill="#1e1c2e"><title>2026-02-08: 0</title></rect>
<rect x="184.6" y="126.4" width="6.6" height="6.6" rx="1.5" fill="#1e1c2e"><title>2026-02-09: 0</title></rect>
<rect x="184.6" y="134.8" width="6.6" height="6.6" rx="1.5" fill="#1e1c2e"><title>2026-02-10: 0</title></rect>
<rect x="184.6" y="143.2" width="6.6" height="6.6" rx="1.5" fill="#1e1c2e"><title>2026-02-11: 0</title></rect>
<rect x="184.6" y="151.6" width="6.6" height="6.6" rx="1.5" fill="#5a1f47"><title>2026-02-12: 1</title></rect>
<rect x="184.6" y="160.0" width="6.6" height="6.6" rx="1.5" fill="#5a1f47"><title>2026-02-13: 7</title></rect>
<rect x="184.6" y="168.4" width="6.6" height="6.6" rx="1.5" fill="#5a1f47"><title>2026-02-14: 6</title></rect>
<rect x="193.0" y="118.0" width="6.6" height="6.6" rx="1.5" fill="#5a1f47"><title>2026-02-15: 2</title></rect>
<rect x="193.0" y="126.4" width="6.6" height="6.6" rx="1.5" fill="#1e1c2e"><title>2026-02-16: 0</title></rect>
<rect x="193.0" y="134.8" width="6.6" height="6.6" rx="1.5" fill="#1e1c2e"><title>2026-02-17: 0</title></rect>
<rect x="193.0" y="143.2" width="6.6" height="6.6" rx="1.5" fill="#5a1f47"><title>2026-02-18: 6</title></rect>
<rect x="193.0" y="151.6" width="6.6" height="6.6" rx="1.5" fill="#5a1f47"><title>2026-02-19: 1</title></rect>
<rect x="193.0" y="160.0" width="6.6" height="6.6" rx="1.5" fill="#5a1f47"><title>2026-02-20: 5</title></rect>
<rect x="193.0" y="168.4" width="6.6" height="6.6" rx="1.5" fill="#1e1c2e"><title>2026-02-21: 0</title></rect>
<rect x="201.4" y="118.0" width="6.6" height="6.6" rx="1.5" fill="#1e1c2e"><title>2026-02-22: 0</title></rect>
<rect x="201.4" y="126.4" width="6.6" height="6.6" rx="1.5" fill="#1e1c2e"><title>2026-02-23: 0</title></rect>
<rect x="201.4" y="134.8" width="6.6" height="6.6" rx="1.5" fill="#1e1c2e"><title>2026-02-24: 0</title></rect>
<rect x="201.4" y="143.2" width="6.6" height="6.6" rx="1.5" fill="#1e1c2e"><title>2026-02-25: 0</title></rect>
<rect x="201.4" y="151.6" width="6.6" height="6.6" rx="1.5" fill="#5a1f47"><title>2026-02-26: 1</title></rect>
<rect x="201.4" y="160.0" width="6.6" height="6.6" rx="1.5" fill="#1e1c2e"><title>2026-02-27: 0</title></rect>
<rect x="201.4" y="168.4" width="6.6" height="6.6" rx="1.5" fill="#1e1c2e"><title>2026-02-28: 0</title></rect>
<rect x="209.8" y="118.0" width="6.6" height="6.6" rx="1.5" fill="#5a1f47"><title>2026-03-01: 1</title></rect>
<rect x="209.8" y="126.4" width="6.6" height="6.6" rx="1.5" fill="#1e1c2e"><title>2026-03-02: 0</title></rect>
<rect x="209.8" y="134.8" width="6.6" height="6.6" rx="1.5" fill="#1e1c2e"><title>2026-03-03: 0</title></rect>
<rect x="209.8" y="143.2" width="6.6" height="6.6" rx="1.5" fill="#1e1c2e"><title>2026-03-04: 0</title></rect>
<rect x="209.8" y="151.6" width="6.6" height="6.6" rx="1.5" fill="#5a1f47"><title>2026-03-05: 1</title></rect>
<rect x="209.8" y="160.0" width="6.6" height="6.6" rx="1.5" fill="#1e1c2e"><title>2026-03-06: 0</title></rect>
<rect x="209.8" y="168.4" width="6.6" height="6.6" rx="1.5" fill="#1e1c2e"><title>2026-03-07: 0</title></rect>
<rect x="218.2" y="118.0" width="6.6" height="6.6" rx="1.5" fill="#1e1c2e"><title>2026-03-08: 0</title></rect>
<rect x="218.2" y="126.4" width="6.6" height="6.6" rx="1.5" fill="#1e1c2e"><title>2026-03-09: 0</title></rect>
<rect x="218.2" y="134.8" width="6.6" height="6.6" rx="1.5" fill="#5a1f47"><title>2026-03-10: 9</title></rect>
<rect x="218.2" y="143.2" width="6.6" height="6.6" rx="1.5" fill="#1e1c2e"><title>2026-03-11: 0</title></rect>
<rect x="218.2" y="151.6" width="6.6" height="6.6" rx="1.5" fill="#1e1c2e"><title>2026-03-12: 0</title></rect>
<rect x="218.2" y="160.0" width="6.6" height="6.6" rx="1.5" fill="#1e1c2e"><title>2026-03-13: 0</title></rect>
<rect x="218.2" y="168.4" width="6.6" height="6.6" rx="1.5" fill="#5a1f47"><title>2026-03-14: 1</title></rect>
<rect x="226.6" y="118.0" width="6.6" height="6.6" rx="1.5" fill="#1e1c2e"><title>2026-03-15: 0</title></rect>
<rect x="226.6" y="126.4" width="6.6" height="6.6" rx="1.5" fill="#5a1f47"><title>2026-03-16: 5</title></rect>
<rect x="226.6" y="134.8" width="6.6" height="6.6" rx="1.5" fill="#1e1c2e"><title>2026-03-17: 0</title></rect>
<rect x="226.6" y="143.2" width="6.6" height="6.6" rx="1.5" fill="#1e1c2e"><title>2026-03-18: 0</title></rect>
<rect x="226.6" y="151.6" width="6.6" height="6.6" rx="1.5" fill="#1e1c2e"><title>2026-03-19: 0</title></rect>
<rect x="226.6" y="160.0" width="6.6" height="6.6" rx="1.5" fill="#1e1c2e"><title>2026-03-20: 0</title></rect>
<rect x="226.6" y="168.4" width="6.6" height="6.6" rx="1.5" fill="#5a1f47"><title>2026-03-21: 1</title></rect>
<rect x="235.0" y="118.0" width="6.6" height="6.6" rx="1.5" fill="#1e1c2e"><title>2026-03-22: 0</title></rect>
<rect x="235.0" y="126.4" width="6.6" height="6.6" rx="1.5" fill="#1e1c2e"><title>2026-03-23: 0</title></rect>
<rect x="235.0" y="134.8" width="6.6" height="6.6" rx="1.5" fill="#5a1f47"><title>2026-03-24: 1</title></rect>
<rect x="235.0" y="143.2" width="6.6" height="6.6" rx="1.5" fill="#1e1c2e"><title>2026-03-25: 0</title></rect>
<rect x="235.0" y="151.6" width="6.6" height="6.6" rx="1.5" fill="#1e1c2e"><title>2026-03-26: 0</title></rect>
<rect x="235.0" y="160.0" width="6.6" height="6.6" rx="1.5" fill="#1e1c2e"><title>2026-03-27: 0</title></rect>
<rect x="235.0" y="168.4" width="6.6" height="6.6" rx="1.5" fill="#1e1c2e"><title>2026-03-28: 0</title></rect>
<rect x="243.4" y="118.0" width="6.6" height="6.6" rx="1.5" fill="#1e1c2e"><title>2026-03-29: 0</title></rect>
<rect x="243.4" y="126.4" width="6.6" height="6.6" rx="1.5" fill="#1e1c2e"><title>2026-03-30: 0</title></rect>
<rect x="243.4" y="134.8" width="6.6" height="6.6" rx="1.5" fill="#1e1c2e"><title>2026-03-31: 0</title></rect>
<rect x="243.4" y="143.2" width="6.6" height="6.6" rx="1.5" fill="#5a1f47"><title>2026-04-01: 2</title></rect>
<rect x="243.4" y="151.6" width="6.6" height="6.6" rx="1.5" fill="#5a1f47"><title>2026-04-02: 14</title></rect>
<rect x="243.4" y="160.0" width="6.6" height="6.6" rx="1.5" fill="#5a1f47"><title>2026-04-03: 6</title></rect>
<rect x="243.4" y="168.4" width="6.6" height="6.6" rx="1.5" fill="#5a1f47"><title>2026-04-04: 7</title></rect>
<rect x="251.8" y="118.0" width="6.6" height="6.6" rx="1.5" fill="#1e1c2e"><title>2026-04-05: 0</title></rect>
<rect x="251.8" y="126.4" width="6.6" height="6.6" rx="1.5" fill="#5a1f47"><title>2026-04-06: 2</title></rect>
<rect x="251.8" y="134.8" width="6.6" height="6.6" rx="1.5" fill="#8f2a5f"><title>2026-04-07: 42</title></rect>
<rect x="251.8" y="143.2" width="6.6" height="6.6" rx="1.5" fill="#5a1f47"><title>2026-04-08: 3</title></rect>
<rect x="251.8" y="151.6" width="6.6" height="6.6" rx="1.5" fill="#5a1f47"><title>2026-04-09: 3</title></rect>
<rect x="251.8" y="160.0" width="6.6" height="6.6" rx="1.5" fill="#5a1f47"><title>2026-04-10: 1</title></rect>
<rect x="251.8" y="168.4" width="6.6" height="6.6" rx="1.5" fill="#5a1f47"><title>2026-04-11: 4</title></rect>
<rect x="260.2" y="118.0" width="6.6" height="6.6" rx="1.5" fill="#1e1c2e"><title>2026-04-12: 0</title></rect>
<rect x="260.2" y="126.4" width="6.6" height="6.6" rx="1.5" fill="#5a1f47"><title>2026-04-13: 1</title></rect>
<rect x="260.2" y="134.8" width="6.6" height="6.6" rx="1.5" fill="#1e1c2e"><title>2026-04-14: 0</title></rect>
<rect x="260.2" y="143.2" width="6.6" height="6.6" rx="1.5" fill="#1e1c2e"><title>2026-04-15: 0</title></rect>
<rect x="260.2" y="151.6" width="6.6" height="6.6" rx="1.5" fill="#1e1c2e"><title>2026-04-16: 0</title></rect>
<rect x="260.2" y="160.0" width="6.6" height="6.6" rx="1.5" fill="#5a1f47"><title>2026-04-17: 1</title></rect>
<rect x="260.2" y="168.4" width="6.6" height="6.6" rx="1.5" fill="#5a1f47"><title>2026-04-18: 3</title></rect>
<rect x="268.6" y="118.0" width="6.6" height="6.6" rx="1.5" fill="#5a1f47"><title>2026-04-19: 4</title></rect>
<rect x="268.6" y="126.4" width="6.6" height="6.6" rx="1.5" fill="#1e1c2e"><title>2026-04-20: 0</title></rect>
<rect x="268.6" y="134.8" width="6.6" height="6.6" rx="1.5" fill="#1e1c2e"><title>2026-04-21: 0</title></rect>
<rect x="268.6" y="143.2" width="6.6" height="6.6" rx="1.5" fill="#1e1c2e"><title>2026-04-22: 0</title></rect>
<rect x="268.6" y="151.6" width="6.6" height="6.6" rx="1.5" fill="#1e1c2e"><title>2026-04-23: 0</title></rect>
<rect x="268.6" y="160.0" width="6.6" height="6.6" rx="1.5" fill="#1e1c2e"><title>2026-04-24: 0</title></rect>
<rect x="268.6" y="168.4" width="6.6" height="6.6" rx="1.5" fill="#1e1c2e"><title>2026-04-25: 0</title></rect>
<rect x="277.0" y="118.0" width="6.6" height="6.6" rx="1.5" fill="#1e1c2e"><title>2026-04-26: 0</title></rect>
<rect x="277.0" y="126.4" width="6.6" height="6.6" rx="1.5" fill="#1e1c2e"><title>2026-04-27: 0</title></rect>
<rect x="277.0" y="134.8" width="6.6" height="6.6" rx="1.5" fill="#1e1c2e"><title>2026-04-28: 0</title></rect>
<rect x="277.0" y="143.2" width="6.6" height="6.6" rx="1.5" fill="#1e1c2e"><title>2026-04-29: 0</title></rect>
<rect x="277.0" y="151.6" width="6.6" height="6.6" rx="1.5" fill="#1e1c2e"><title>2026-04-30: 0</title></rect>
<rect x="277.0" y="160.0" width="6.6" height="6.6" rx="1.5" fill="#1e1c2e"><title>2026-05-01: 0</title></rect>
<rect x="277.0" y="168.4" width="6.6" height="6.6" rx="1.5" fill="#1e1c2e"><title>2026-05-02: 0</title></rect>
<rect x="285.4" y="118.0" width="6.6" height="6.6" rx="1.5" fill="#1e1c2e"><title>2026-05-03: 0</title></rect>
<rect x="285.4" y="126.4" width="6.6" height="6.6" rx="1.5" fill="#1e1c2e"><title>2026-05-04: 0</title></rect>
<rect x="285.4" y="134.8" width="6.6" height="6.6" rx="1.5" fill="#1e1c2e"><title>2026-05-05: 0</title></rect>
<rect x="285.4" y="143.2" width="6.6" height="6.6" rx="1.5" fill="#1e1c2e"><title>2026-05-06: 0</title></rect>
<rect x="285.4" y="151.6" width="6.6" height="6.6" rx="1.5" fill="#1e1c2e"><title>2026-05-07: 0</title></rect>
<rect x="285.4" y="160.0" width="6.6" height="6.6" rx="1.5" fill="#1e1c2e"><title>2026-05-08: 0</title></rect>
<rect x="285.4" y="168.4" width="6.6" height="6.6" rx="1.5" fill="#1e1c2e"><title>2026-05-09: 0</title></rect>
<rect x="293.8" y="118.0" width="6.6" height="6.6" rx="1.5" fill="#5a1f47"><title>2026-05-10: 1</title></rect>
<rect x="293.8" y="126.4" width="6.6" height="6.6" rx="1.5" fill="#5a1f47"><title>2026-05-11: 23</title></rect>
<rect x="293.8" y="134.8" width="6.6" height="6.6" rx="1.5" fill="#5a1f47"><title>2026-05-12: 19</title></rect>
<rect x="293.8" y="143.2" width="6.6" height="6.6" rx="1.5" fill="#5a1f47"><title>2026-05-13: 25</title></rect>
<rect x="293.8" y="151.6" width="6.6" height="6.6" rx="1.5" fill="#fe428e"><title>2026-05-14: 83</title></rect>
<rect x="293.8" y="160.0" width="6.6" height="6.6" rx="1.5" fill="#5a1f47"><title>2026-05-15: 3</title></rect>
<rect x="293.8" y="168.4" width="6.6" height="6.6" rx="1.5" fill="#5a1f47"><title>2026-05-16: 23</title></rect>
<rect x="302.2" y="118.0" width="6.6" height="6.6" rx="1.5" fill="#8f2a5f"><title>2026-05-17: 37</title></rect>
<rect x="302.2" y="126.4" width="6.6" height="6.6" rx="1.5" fill="#5a1f47"><title>2026-05-18: 23</title></rect>
<rect x="302.2" y="134.8" width="6.6" height="6.6" rx="1.5" fill="#8f2a5f"><title>2026-05-19: 39</title></rect>
<rect x="302.2" y="143.2" width="6.6" height="6.6" rx="1.5" fill="#1e1c2e"><title>2026-05-20: 0</title></rect>
<rect x="302.2" y="151.6" width="6.6" height="6.6" rx="1.5" fill="#8f2a5f"><title>2026-05-21: 29</title></rect>
<rect x="302.2" y="160.0" width="6.6" height="6.6" rx="1.5" fill="#5a1f47"><title>2026-05-22: 11</title></rect>
<rect x="302.2" y="168.4" width="6.6" height="6.6" rx="1.5" fill="#5a1f47"><title>2026-05-23: 3</title></rect>
<rect x="310.6" y="118.0" width="6.6" height="6.6" rx="1.5" fill="#1e1c2e"><title>2026-05-24: 0</title></rect>
<rect x="310.6" y="126.4" width="6.6" height="6.6" rx="1.5" fill="#1e1c2e"><title>2026-05-25: 0</title></rect>
<rect x="310.6" y="134.8" width="6.6" height="6.6" rx="1.5" fill="#1e1c2e"><title>2026-05-26: 0</title></rect>
<rect x="310.6" y="143.2" width="6.6" height="6.6" rx="1.5" fill="#1e1c2e"><title>2026-05-27: 0</title></rect>
<rect x="310.6" y="151.6" width="6.6" height="6.6" rx="1.5" fill="#1e1c2e"><title>2026-05-28: 0</title></rect>
<rect x="310.6" y="160.0" width="6.6" height="6.6" rx="1.5" fill="#1e1c2e"><title>2026-05-29: 0</title></rect>
<rect x="310.6" y="168.4" width="6.6" height="6.6" rx="1.5" fill="#5a1f47"><title>2026-05-30: 20</title></rect>
<rect x="319.0" y="118.0" width="6.6" height="6.6" rx="1.5" fill="#8f2a5f"><title>2026-05-31: 45</title></rect>
<rect x="319.0" y="126.4" width="6.6" height="6.6" rx="1.5" fill="#c93577"><title>2026-06-01: 76</title></rect>
<rect x="319.0" y="134.8" width="6.6" height="6.6" rx="1.5" fill="#5a1f47"><title>2026-06-02: 11</title></rect>
<rect x="319.0" y="143.2" width="6.6" height="6.6" rx="1.5" fill="#5a1f47"><title>2026-06-03: 12</title></rect>
<rect x="319.0" y="151.6" width="6.6" height="6.6" rx="1.5" fill="#5a1f47"><title>2026-06-04: 11</title></rect>
<rect x="319.0" y="160.0" width="6.6" height="6.6" rx="1.5" fill="#1e1c2e"><title>2026-06-05: 0</title></rect>
<rect x="319.0" y="168.4" width="6.6" height="6.6" rx="1.5" fill="#1e1c2e"><title>2026-06-06: 0</title></rect>
<rect x="327.4" y="118.0" width="6.6" height="6.6" rx="1.5" fill="#1e1c2e"><title>2026-06-07: 0</title></rect>
<rect x="327.4" y="126.4" width="6.6" height="6.6" rx="1.5" fill="#5a1f47"><title>2026-06-08: 5</title></rect>
<rect x="327.4" y="134.8" width="6.6" height="6.6" rx="1.5" fill="#5a1f47"><title>2026-06-09: 8</title></rect>
<rect x="327.4" y="143.2" width="6.6" height="6.6" rx="1.5" fill="#5a1f47"><title>2026-06-10: 10</title></rect>
<rect x="327.4" y="151.6" width="6.6" height="6.6" rx="1.5" fill="#1e1c2e"><title>2026-06-11: 0</title></rect>
<rect x="327.4" y="160.0" width="6.6" height="6.6" rx="1.5" fill="#5a1f47"><title>2026-06-12: 3</title></rect>
<rect x="327.4" y="168.4" width="6.6" height="6.6" rx="1.5" fill="#5a1f47"><title>2026-06-13: 6</title></rect>
<rect x="335.8" y="118.0" width="6.6" height="6.6" rx="1.5" fill="#5a1f47"><title>2026-06-14: 5</title></rect>
<rect x="335.8" y="126.4" width="6.6" height="6.6" rx="1.5" fill="#5a1f47"><title>2026-06-15: 10</title></rect>
<rect x="335.8" y="134.8" width="6.6" height="6.6" rx="1.5" fill="#5a1f47"><title>2026-06-16: 5</title></rect>
<rect x="335.8" y="143.2" width="6.6" height="6.6" rx="1.5" fill="#5a1f47"><title>2026-06-17: 5</title></rect>
<rect x="335.8" y="151.6" width="6.6" height="6.6" rx="1.5" fill="#1e1c2e"><title>2026-06-18: 0</title></rect>
<rect x="335.8" y="160.0" width="6.6" height="6.6" rx="1.5" fill="#1e1c2e"><title>2026-06-19: 0</title></rect>
<rect x="335.8" y="168.4" width="6.6" height="6.6" rx="1.5" fill="#5a1f47"><title>2026-06-20: 16</title></rect>
<rect x="344.2" y="118.0" width="6.6" height="6.6" rx="1.5" fill="#1e1c2e"><title>2026-06-21: 0</title></rect>
<rect x="344.2" y="126.4" width="6.6" height="6.6" rx="1.5" fill="#1e1c2e"><title>2026-06-22: 0</title></rect>
<rect x="344.2" y="134.8" width="6.6" height="6.6" rx="1.5" fill="#1e1c2e"><title>2026-06-23: 0</title></rect>
<rect x="344.2" y="143.2" width="6.6" height="6.6" rx="1.5" fill="#1e1c2e"><title>2026-06-24: 0</title></rect>
<rect x="344.2" y="151.6" width="6.6" height="6.6" rx="1.5" fill="#1e1c2e"><title>2026-06-25: 0</title></rect>
<rect x="344.2" y="160.0" width="6.6" height="6.6" rx="1.5" fill="#5a1f47"><title>2026-06-26: 14</title></rect>
<rect x="344.2" y="168.4" width="6.6" height="6.6" rx="1.5" fill="#5a1f47"><title>2026-06-27: 18</title></rect>
<rect x="352.6" y="118.0" width="6.6" height="6.6" rx="1.5" fill="#5a1f47"><title>2026-06-28: 3</title></rect>
<rect x="352.6" y="126.4" width="6.6" height="6.6" rx="1.5" fill="#5a1f47"><title>2026-06-29: 10</title></rect>
<rect x="352.6" y="134.8" width="6.6" height="6.6" rx="1.5" fill="#5a1f47"><title>2026-06-30: 19</title></rect>
<rect x="352.6" y="143.2" width="6.6" height="6.6" rx="1.5" fill="#5a1f47"><title>2026-07-01: 1</title></rect>
<rect x="352.6" y="151.6" width="6.6" height="6.6" rx="1.5" fill="#5a1f47"><title>2026-07-02: 3</title></rect>
<rect x="352.6" y="160.0" width="6.6" height="6.6" rx="1.5" fill="#5a1f47"><title>2026-07-03: 6</title></rect>
<rect x="352.6" y="168.4" width="6.6" height="6.6" rx="1.5" fill="#5a1f47"><title>2026-07-04: 12</title></rect>
<rect x="361.0" y="118.0" width="6.6" height="6.6" rx="1.5" fill="#8f2a5f"><title>2026-07-05: 36</title></rect>
<rect x="361.0" y="126.4" width="6.6" height="6.6" rx="1.5" fill="#5a1f47"><title>2026-07-06: 19</title></rect>
<rect x="361.0" y="134.8" width="6.6" height="6.6" rx="1.5" fill="#5a1f47"><title>2026-07-07: 12</title></rect>
<rect x="361.0" y="143.2" width="6.6" height="6.6" rx="1.5" fill="#1e1c2e"><title>2026-07-08: 0</title></rect>
<rect x="361.0" y="151.6" width="6.6" height="6.6" rx="1.5" fill="#1e1c2e"><title>2026-07-09: 0</title></rect>
<rect x="361.0" y="160.0" width="6.6" height="6.6" rx="1.5" fill="#1e1c2e"><title>2026-07-10: 0</title></rect>
<rect x="361.0" y="168.4" width="6.6" height="6.6" rx="1.5" fill="#c93577"><title>2026-07-11: 74</title></rect>
<rect x="369.4" y="118.0" width="6.6" height="6.6" rx="1.5" fill="#1e1c2e"><title>2026-07-12: 0</title></rect>
<rect x="369.4" y="126.4" width="6.6" height="6.6" rx="1.5" fill="#1e1c2e"><title>2026-07-13: 0</title></rect>
<rect x="369.4" y="134.8" width="6.6" height="6.6" rx="1.5" fill="#1e1c2e"><title>2026-07-14: 0</title></rect>
<rect x="369.4" y="143.2" width="6.6" height="6.6" rx="1.5" fill="#1e1c2e"><title>2026-07-15: 0</title></rect>
<rect x="369.4" y="151.6" width="6.6" height="6.6" rx="1.5" fill="#1e1c2e"><title>2026-07-16: 0</title></rect>
<rect x="369.4" y="160.0" width="6.6" height="6.6" rx="1.5" fill="#5a1f47"><title>2026-07-17: 5</title></rect>
<rect x="369.4" y="168.4" width="6.6" height="6.6" rx="1.5" fill="#1e1c2e"><title>2026-07-18: 0</title></rect>
<rect x="377.8" y="118.0" width="6.6" height="6.6" rx="1.5" fill="#5a1f47"><title>2026-07-19: 3</title></rect>
<rect x="377.8" y="126.4" width="6.6" height="6.6" rx="1.5" fill="#5a1f47"><title>2026-07-20: 17</title></rect>
<rect x="377.8" y="134.8" width="6.6" height="6.6" rx="1.5" fill="#1e1c2e"><title>2026-07-21: 0</title></rect>
<rect x="377.8" y="143.2" width="6.6" height="6.6" rx="1.5" fill="#5a1f47"><title>2026-07-22: 17</title></rect>
<rect x="377.8" y="151.6" width="6.6" height="6.6" rx="1.5" fill="#5a1f47"><title>2026-07-23: 2</title></rect>
<rect x="377.8" y="160.0" width="6.6" height="6.6" rx="1.5" fill="#1e1c2e"><title>2026-07-24: 0</title></rect>
<rect x="377.8" y="168.4" width="6.6" height="6.6" rx="1.5" fill="#8f2a5f"><title>2026-07-25: 38</title></rect>
<rect x="386.2" y="118.0" width="6.6" height="6.6" rx="1.5" fill="#8f2a5f"><title>2026-07-26: 28</title></rect>
<rect x="386.2" y="126.4" width="6.6" height="6.6" rx="1.5" fill="#5a1f47"><title>2026-07-27: 19</title></rect>
<rect x="386.2" y="134.8" width="6.6" height="6.6" rx="1.5" fill="#1e1c2e"><title>2026-07-28: 0</title></rect>
<rect x="386.2" y="143.2" width="6.6" height="6.6" rx="1.5" fill="#5a1f47"><title>2026-07-29: 22</title></rect>
<rect x="386.2" y="151.6" width="6.6" height="6.6" rx="1.5" fill="#1e1c2e"><title>2026-07-30: 0</title></rect>
<rect x="386.2" y="160.0" width="6.6" height="6.6" rx="1.5" fill="#1e1c2e"><title>2026-07-31: 0</title></rect>
<rect x="386.2" y="168.4" width="6.6" height="6.6" rx="1.5" fill="#5a1f47"><title>2026-08-01: 22</title></rect>
<rect x="394.6" y="118.0" width="6.6" height="6.6" rx="1.5" fill="#5a1f47"><title>2026-08-02: 18</title></rect>
<rect x="394.6" y="126.4" width="6.6" height="6.6" rx="1.5" fill="#c93577"><title>2026-08-03: 58</title></rect>
<rect x="394.6" y="134.8" width="6.6" height="6.6" rx="1.5" fill="#5a1f47"><title>2026-08-04: 16</title></rect>
<rect x="394.6" y="143.2" width="6.6" height="6.6" rx="1.5" fill="#5a1f47"><title>2026-08-05: 10</title></rect>
<rect x="394.6" y="151.6" width="6.6" height="6.6" rx="1.5" fill="#1e1c2e"><title>2026-08-06: 0</title></rect>
<rect x="394.6" y="160.0" width="6.6" height="6.6" rx="1.5" fill="#1e1c2e"><title>2026-08-07: 0</title></rect>
<rect x="394.6" y="168.4" width="6.6" height="6.6" rx="1.5" fill="#5a1f47"><title>2026-08-08: 6</title></rect>
<rect x="403.0" y="118.0" width="6.6" height="6.6" rx="1.5" fill="#5a1f47"><title>2026-08-09: 3</title></rect>
<rect x="403.0" y="126.4" width="6.6" height="6.6" rx="1.5" fill="#5a1f47"><title>2026-08-10: 14</title></rect>
<rect x="403.0" y="134.8" width="6.6" height="6.6" rx="1.5" fill="#5a1f47"><title>2026-08-11: 8</title></rect>
<rect x="403.0" y="143.2" width="6.6" height="6.6" rx="1.5" fill="#8f2a5f"><title>2026-08-12: 30</title></rect>
<rect x="403.0" y="151.6" width="6.6" height="6.6" rx="1.5" fill="#8f2a5f"><title>2026-08-13: 38</title></rect>
<rect x="403.0" y="160.0" width="6.6" height="6.6" rx="1.5" fill="#1e1c2e"><title>2026-08-14: 0</title></rect>
<rect x="403.0" y="168.4" width="6.6" height="6.6" rx="1.5" fill="#8f2a5f"><title>2026-08-15: 36</title></rect>
<rect x="411.4" y="118.0" width="6.6" height="6.6" rx="1.5" fill="#1e1c2e"><title>2026-08-16: 0</title></rect>
<rect x="411.4" y="126.4" width="6.6" height="6.6" rx="1.5" fill="#1e1c2e"><title>2026-08-17: 0</title></rect>
<rect x="411.4" y="134.8" width="6.6" height="6.6" rx="1.5" fill="#1e1c2e"><title>2026-08-18: 0</title></rect>
<rect x="411.4" y="143.2" width="6.6" height="6.6" rx="1.5" fill="#1e1c2e"><title>2026-08-19: 0</title></rect>
<rect x="411.4" y="151.6" width="6.6" height="6.6" rx="1.5" fill="#1e1c2e"><title>2026-08-20: 0</title></rect>
<rect x="411.4" y="160.0" width="6.6" height="6.6" rx="1.5" fill="#1e1c2e"><title>2026-08-21: 0</title></rect>
<rect x="411.4" y="168.4" width="6.6" height="6.6" rx="1.5" fill="#1e1c2e"><title>2026-08-22: 0</title></rect>
<rect x="419.8" y="118.0" width="6.6" height="6.6" rx="1.5" fill="#1e1c2e"><title>2026-08-23: 0</title></rect>
<rect x="419.8" y="126.4" width="6.6" height="6.6" rx="1.5" fill="#1e1c2e"><title>2026-08-24: 0</title></rect>
<rect x="419.8" y="134.8" width="6.6" height="6.6" rx="1.5" fill="#1e1c2e"><title>2026-08-25: 0</title></rect>
<rect x="419.8" y="143.2" width="6.6" height="6.6" rx="1.5" fill="#1e1c2e"><title>2026-08-26: 0</title></rect>
<rect x="419.8" y="151.6" width="6.6" height="6.6" rx="1.5" fill="#1e1c2e"><title>2026-08-27: 0</title></rect>
<rect x="419.8" y="160.0" width="6.6" height="6.6" rx="1.5" fill="#1e1c2e"><title>2026-08-28: 0</title></rect>
<rect x="419.8" y="168.4" width="6.6" height="6.6" rx="1.5" fill="#5a1f47"><title>2026-08-29: 11</title></rect>
<rect x="428.2" y="118.0" width="6.6" height="6.6" rx="1.5" fill="#5a1f47"><title>2026-08-30: 16</title></rect>
<rect x="428.2" y="126.4" width="6.6" height="6.6" rx="1.5" fill="#1e1c2e"><title>2026-08-31: 0</title></rect>
<rect x="428.2" y="134.8" width="6.6" height="6.6" rx="1.5" fill="#5a1f47"><title>2026-09-01: 7</title></rect>
<rect x="428.2" y="143.2" width="6.6" height="6.6" rx="1.5" fill="#5a1f47"><title>2026-09-02: 1</title></rect>
<rect x="428.2" y="151.6" width="6.6" height="6.6" rx="1.5" fill="#1e1c2e"><title>2026-09-03: 0</title></rect>
<rect x="428.2" y="160.0" width="6.6" height="6.6" rx="1.5" fill="#1e1c2e"><title>2026-09-04: 0</title></rect>
<rect x="428.2" y="168.4" width="6.6" height="6.6" rx="1.5" fill="#1e1c2e"><title>2026-09-05: 0</title></rect>
<rect x="436.6" y="118.0" width="6.6" height="6.6" rx="1.5" fill="#1e1c2e"><title>2026-09-06: 0</title></rect>
<rect x="436.6" y="126.4" width="6.6" height="6.6" rx="1.5" fill="#1e1c2e"><title>2026-09-07: 0</title></rect>
<rect x="436.6" y="134.8" width="6.6" height="6.6" rx="1.5" fill="#1e1c2e"><title>2026-09-08: 0</title></rect>
<rect x="436.6" y="143.2" width="6.6" height="6.6" rx="1.5" fill="#1e1c2e"><title>2026-09-09: 0</title></rect>
<rect x="436.6" y="151.6" width="6.6" height="6.6" rx="1.5" fill="#1e1c2e"><title>2026-09-10: 0</title></rect>
<rect x="436.6" y="160.0" width="6.6" height="6.6" rx="1.5" fill="#1e1c2e"><title>2026-09-11: 0</title></rect>
<rect x="436.6" y="168.4" width="6.6" height="6.6" rx="1.5" fill="#1e1c2e"><title>2026-09-12: 0</title></rect>
<rect x="445.0" y="118.0" width="6.6" height="6.6" rx="1.5" fill="#1e1c2e"><title>2026-09-13: 0</title></rect>
<rect x="445.0" y="126.4" width="6.6" height="6.6" rx="1.5" fill="#1e1c2e"><title>2026-09-14: 0</title></rect>
<rect x="445.0" y="134.8" width="6.6" height="6.6" rx="1.5" fill="#1e1c2e"><title>2026-09-15: 0</title></rect>
<rect x="445.0" y="143.2" width="6.6" height="6.6" rx="1.5" fill="#1e1c2e"><title>2026-09-16: 0</title></rect>
<rect x="445.0" y="151.6" width="6.6" height="6.6" rx="1.5" fill="#1e1c2e"><title>2026-09-17: 0</title></rect>
<rect x="445.0" y="160.0" width="6.6" height="6.6" rx="1.5" fill="#1e1c2e"><title>2026-09-18: 0</title></rect>
<rect x="445.0" y="168.4" width="6.6" height="6.6" rx="1.5" fill="#1e1c2e"><title>2026-09-19: 0</title></rect>
<rect x="453.4" y="118.0" width="6.6" height="6.6" rx="1.5" fill="#1e1c2e"><title>2026-09-20: 0</title></rect>
<rect x="453.4" y="126.4" width="6.6" height="6.6" rx="1.5" fill="#1e1c2e"><title>2026-09-21: 0</title></rect>
<rect x="453.4" y="134.8" width="6.6" height="6.6" rx="1.5" fill="#1e1c2e"><title>2026-09-22: 0</title></rect>
<rect x="453.4" y="143.2" width="6.6" height="6.6" rx="1.5" fill="#1e1c2e"><title>2026-09-23: 0</title></rect>
<rect x="453.4" y="151.6" width="6.6" height="6.6" rx="1.5" fill="#1e1c2e"><title>2026-09-24: 0</title></rect>
<rect x="453.4" y="160.0" width="6.6" height="6.6" rx="1.5" fill="#1e1c2e"><title>2026-09-25: 0</title></rect>
<rect x="453.4" y="168.4" width="6.6" height="6.6" rx="1.5" fill="#5a1f47"><title>2026-09-26: 6</title></rect>
<rect x="461.8" y="118.0" width="6.6" height="6.6" rx="1.5" fill="#5a1f47"><title>2026-09-27: 6</title></rect>
<rect x="461.8" y="126.4" width="6.6" height="6.6" rx="1.5" fill="#1e1c2e"><title>2026-09-28: 0</title></rect>
<rect x="461.8" y="134.8" width="6.6" height="6.6" rx="1.5" fill="#8f2a5f"><title>2026-09-29: 28</title></rect>
</svg>
